<svg xmlns="http://www.w3.org/2000/svg" xmlns:xlink="http://www.w3.org/1999/xlink" version="1.1" id="Icon" x="0px" y="0px" width="100px" height="100px" viewBox="0 0 100 100" enable-background="new 0 0 100 100" xml:space="preserve">
<path fill="#000000" d="M98.217,55.743V44.709l-1.535-0.51l-11.631-3.856l-3.104-7.611l5.966-12.821l-7.684-7.804l-1.439,0.742  l-10.907,5.628l-7.493-3.152L55.679,1.97H44.814l-0.5,1.559l-3.798,11.815l-7.49,3.151l-12.627-6.059l-7.681,7.804l0.73,1.461  l5.54,11.083l-3.102,7.607L2.737,45.174v11.038l1.536,0.509l11.631,3.856l3.104,7.608l-5.965,12.823l7.68,7.807l1.44-0.745  l10.91-5.625l7.492,3.152l4.708,13.352h10.863l0.505-1.559l3.797-11.814l7.492-3.152l12.624,6.062l7.685-7.806l-0.731-1.462  l-5.539-11.08l3.104-7.61L98.217,55.743z M50.478,65.913c-8.402,0-15.214-6.919-15.214-15.454c0-8.535,6.812-15.454,15.214-15.454  c8.403,0,15.213,6.919,15.213,15.454C65.69,58.994,58.881,65.913,50.478,65.913z"/>
</svg>